<svg id="Lager_1" data-name="Lager 1" xmlns="http://www.w3.org/2000/svg" viewBox="0 0 622.7 315.95"><defs><style>.cls-1{fill:#fff;}</style></defs><title>SAND_LOGO_NY</title><path class="cls-1" d="M95.56,79c39.59,0,59.94,23.68,59.94,65.12v8.14H117V141.57c0-18.5-7.4-25.53-20.35-25.53s-20.35,7-20.35,25.53c0,18.87,8.14,32.93,34.78,56.24,34,30,44.77,51.43,44.77,81,0,41.44-20.72,65.12-60.68,65.12s-60.68-23.68-60.68-65.12V262.93H73v18.5c0,18.5,8.14,25.16,21.09,25.16s21.09-6.66,21.09-25.16c0-18.87-8.14-32.93-34.78-56.24-34-30-44.77-51.43-44.77-81C35.62,102.72,56,79,95.56,79Z" transform="translate(-34.51 -79.04)"/><path class="cls-1" d="M325.7,341H284.63l-7-47H227.65l-7,47H183.25L224.69,82h59.57Zm-92.87-82.14H272l-19.24-131h-.74Z" transform="translate(-34.51 -79.04)"/><path class="cls-1" d="M396.37,153.41h-.74V341H359V82h51.06l41.07,155h.74V82h36.26V341H446.32Z" transform="translate(-34.51 -79.04)"/><path class="cls-1" d="M532.15,82h64.38c40.7,0,60.68,22.57,60.68,64V277c0,41.44-20,64-60.68,64H532.15Zm40.7,37V304h22.94c13,0,20.72-6.66,20.72-25.16V144.16c0-18.5-7.77-25.16-20.72-25.16Z" transform="translate(-34.51 -79.04)"/><path class="cls-1" d="M192.87,369.88c-3.6,0-6,1.44-6,3.84,0,7.28,15.76,3.48,15.72,13.64,0,4.64-4.12,7.64-10.12,7.64a16,16,0,0,1-10.72-4.28l1.44-2.76a14.07,14.07,0,0,0,9.32,3.92c4,0,6.56-1.64,6.56-4.36,0-7.48-15.72-3.52-15.72-13.56,0-4.4,3.88-7.2,9.68-7.2a16.56,16.56,0,0,1,8.88,2.6l-1.36,2.84A14.74,14.74,0,0,0,192.87,369.88Z" transform="translate(-34.51 -79.04)"/><path class="cls-1" d="M234.07,366.88v3h-9.16v25h-3.2v-25H212.6v-3Z" transform="translate(-34.51 -79.04)"/><path class="cls-1" d="M270.79,380.88c0,7.88-6.48,14.12-14.64,14.12s-14.68-6.24-14.68-14.12S248,366.8,256.15,366.8,270.79,373,270.79,380.88Zm-26.08,0a11.4,11.4,0,0,0,22.8,0,11.4,11.4,0,0,0-22.8,0Z" transform="translate(-34.51 -79.04)"/><path class="cls-1" d="M295.15,369.72a11.14,11.14,0,1,0,0,22.28,12.21,12.21,0,0,0,8.28-3.36l2,2.12A15.38,15.38,0,0,1,295,395a14.21,14.21,0,0,1-14.48-14.16c0-7.84,6.48-14,14.6-14a15.14,15.14,0,0,1,10.24,4.08l-1.92,2.32A11.89,11.89,0,0,0,295.15,369.72Z" transform="translate(-34.51 -79.04)"/><path class="cls-1" d="M337.31,394.87,327,381.56l-5.44,6v7.32h-3.2v-28h3.2v16.28l15-16.28h3.8l-11.12,12.2,12,15.8Z" transform="translate(-34.51 -79.04)"/><path class="cls-1" d="M356.71,366.88v12.68h16.88V366.88h3.2v28h-3.2v-12.4H356.71v12.4h-3.2v-28Z" transform="translate(-34.51 -79.04)"/><path class="cls-1" d="M419.15,380.88c0,7.88-6.48,14.12-14.64,14.12s-14.68-6.24-14.68-14.12,6.48-14.08,14.68-14.08S419.15,373,419.15,380.88Zm-26.08,0a11.4,11.4,0,0,0,22.8,0,11.4,11.4,0,0,0-22.8,0Z" transform="translate(-34.51 -79.04)"/><path class="cls-1" d="M435.39,366.88v25h12.28v3H432.19v-28Z" transform="translate(-34.51 -79.04)"/><path class="cls-1" d="M464,366.88l10.24,20.32,10.2-20.32h3.92v28h-3l0-23.28-10.2,20.32h-1.92L463.11,371.6v23.28h-3v-28Z" transform="translate(-34.51 -79.04)"/></svg>